<svg version="1.1"
      xmlns="http://www.w3.org/2000/svg"
      xmlns:xlink="http://www.w3.org/1999/xlink"  id="snapshot-08877" width="250" height="250" viewBox="0 0 250 250"><desc>This image was made on Patterninja.com</desc><defs>
<!-- image 85202 -->
<g id="transformed-85202" data-image="85202" transform="translate(79.652, 13) rotate(22, 10.348000000000004, 13)"><g><svg version="1.1" width="20.69600000000001px" height="26px" viewBox="0 0 20.69600000000001 26"><g id="original-85202"><svg xmlns="http://www.w3.org/2000/svg" viewBox="0 0 55 69" xmlns:xlink="http://www.w3.org/1999/xlink" version="1.1" preserveAspectRatio="xMidYMid meet">
  <path fill-rule="evenodd" d="M5 69V5h50v64z" fill="rgba(86, 51, 101, 1)" stroke="none"/>
  <path fill-rule="evenodd" d="M0 64V0h36l14 14v50z" fill="rgba(229, 203, 240, 0.7616279069767442)" stroke="none"/>
  <path fill-rule="evenodd" d="M36 0l14 14H36z" fill="rgba(210, 210, 210, 1)" stroke="none"/>
  <path fill-rule="evenodd" d="M10.5 49h29a.5.5 0 1 1 0 1h-29a.5.5 0 1 1 0-1z" fill="rgba(144, 144, 143, 1)" stroke="none"/>
  <path fill-rule="evenodd" d="M10.5 39h29a.5.5 0 1 1 0 1h-29a.5.5 0 1 1 0-1z" fill="rgba(144, 144, 143, 1)" stroke="none"/>
  <path fill-rule="evenodd" d="M10.5 29h29a.5.5 0 1 1 0 1h-29a.5.5 0 1 1 0-1z" fill="rgba(144, 144, 143, 1)" stroke="none"/>
  <path fill-rule="evenodd" d="M10.5 19h29a.5.5 0 1 1 0 1h-29a.5.5 0 1 1 0-1z" fill="rgba(144, 144, 143, 1)" stroke="none"/>
</svg>
</g></svg></g></g>
<!-- /image 85202 -->

<!-- image 29139 -->
<g id="transformed-29139" data-image="29139" transform="translate(87.59851948477333, 107.68217893672364) rotate(335, 13.401480515226666, 14.317821063276353)"><g><svg version="1.1" width="26.802961030453332px" height="28.635642126552707px" viewBox="0 0 26.802961030453332 28.635642126552707"><g id="original-29139"><svg xmlns="http://www.w3.org/2000/svg" viewBox="0 0 60 64" xmlns:xlink="http://www.w3.org/1999/xlink" version="1.1" preserveAspectRatio="xMidYMid meet">
  <path fill-rule="evenodd" d="M30 63.99L0 46V15L30 0l30 15v31z" fill="rgba(79, 22, 99, 0.5930232558139535)" stroke="none"/>
  <path fill-rule="evenodd" d="M0 30.5V15l30 15v33.99L0 46z" fill="rgba(244, 232, 248, 0.5930232558139535)" stroke="none"/>
  <path fill-rule="evenodd" d="M60 30.5V15L30 30v33.99L60 46z" fill="rgba(197, 150, 213, 0.1)" stroke="none"/>
</svg>
</g></svg></g></g>
<!-- /image 29139 -->

<!-- image 40696 -->
<g id="transformed-40696" data-image="40696" transform="translate(-7.952555500512325, 42.75154326868341) rotate(212, 18.952555500512325, 20.248456731316587)"><g><svg version="1.1" width="37.90511100102465px" height="40.496913462633174px" viewBox="0 0 37.90511100102465 40.496913462633174"><g id="original-40696"><svg xmlns="http://www.w3.org/2000/svg" viewBox="0 0 60 64" xmlns:xlink="http://www.w3.org/1999/xlink" version="1.1" preserveAspectRatio="xMidYMid meet">
  <g transform="translate(0 -1)">
    <path d="M17.584 3.1L38 35.794l-4 1.933-1-1.933c-4.136.666-4.506.044-6-2.9-4.337-8.545-14-29-14-29s-1.094-2.869 2.5-2.9c1.305-.005 1.983 1.893 2.084 2.106z" fill="rgba(187, 164, 207, 1)" stroke="none" fill-rule="evenodd"/>
    <path d="M33 37.727l6-2.9s.8 1.742 2 3.866c1.149 2.032 4.182 4.622 10 5.8s9 4.76 9 9.665c0 4.905-3.12 7.679-7 9.665-3.88 1.986-6.55 1.739-9-2.9S33 37.727 33 37.727zm18 10.631c3.59 0 6.114 3.554 6 5.8-.18 3.553-2.876 6.717-7 7.732-2.792.687-5.012-4.119-6-7.732-1.066-3.9 3.41-5.8 7-5.8z" fill="rgba(68, 43, 90, 0.7209302325581395)" stroke="none" fill-rule="evenodd"/>
    <path d="M42.416 3.1L22 35.794l4 1.933 1-1.933c4.136.666 4.506.044 6-2.9 4.337-8.545 14-29 14-29s1.094-2.869-2.5-2.9C43.2.989 42.517 2.887 42.416 3.1z" fill="rgba(212, 180, 240, 1)" stroke="none" fill-rule="evenodd"/>
    <path d="M27 37.727l-6-2.9s-.8 1.742-2 3.866c-1.149 2.032-4.182 4.622-10 5.8s-9 4.76-9 9.665c0 4.905 3.12 7.679 7 9.665 3.88 1.986 6.55 1.739 9-2.9s11-23.196 11-23.196zM9 48.358c-3.59 0-6.114 3.554-6 5.8.18 3.553 2.876 6.717 7 7.732 2.792.687 5.012-4.119 6-7.732 1.066-3.9-3.41-5.8-7-5.8z" fill="rgba(68, 43, 90, 0.7209302325581395)" stroke="none" fill-rule="evenodd"/>
    <circle cx="30" cy="30" r="3" fill="rgba(136, 136, 136, 1)" stroke="none" fill-rule="evenodd"/>
  </g>
</svg>
</g></svg></g></g>
<!-- /image 40696 -->

<!-- image 90368 -->
<g id="transformed-90368" data-image="90368" transform="translate(109.06049436149289, 213.9706136340736) rotate(130, 15.939505638507107, 17.029386365926403)"><g><svg version="1.1" width="31.879011277014214px" height="34.058772731852805px" viewBox="0 0 31.879011277014214 34.058772731852805"><g id="original-90368"><svg xmlns="http://www.w3.org/2000/svg" viewBox="0 0 60 64" xmlns:xlink="http://www.w3.org/1999/xlink" version="1.1" preserveAspectRatio="xMidYMid meet">
  <g transform="translate(0 -1)">
    <path d="M17.584 3.1L38 35.794l-4 1.933-1-1.933c-4.136.666-4.506.044-6-2.9-4.337-8.545-14-29-14-29s-1.094-2.869 2.5-2.9c1.305-.005 1.983 1.893 2.084 2.106z" fill="rgba(187, 164, 207, 1)" stroke="none" fill-rule="evenodd"/>
    <path d="M33 37.727l6-2.9s.8 1.742 2 3.866c1.149 2.032 4.182 4.622 10 5.8s9 4.76 9 9.665c0 4.905-3.12 7.679-7 9.665-3.88 1.986-6.55 1.739-9-2.9S33 37.727 33 37.727zm18 10.631c3.59 0 6.114 3.554 6 5.8-.18 3.553-2.876 6.717-7 7.732-2.792.687-5.012-4.119-6-7.732-1.066-3.9 3.41-5.8 7-5.8z" fill="rgba(68, 43, 90, 1)" stroke="none" fill-rule="evenodd"/>
    <path d="M42.416 3.1L22 35.794l4 1.933 1-1.933c4.136.666 4.506.044 6-2.9 4.337-8.545 14-29 14-29s1.094-2.869-2.5-2.9C43.2.989 42.517 2.887 42.416 3.1z" fill="rgba(212, 180, 240, 1)" stroke="none" fill-rule="evenodd"/>
    <path d="M27 37.727l-6-2.9s-.8 1.742-2 3.866c-1.149 2.032-4.182 4.622-10 5.8s-9 4.76-9 9.665c0 4.905 3.12 7.679 7 9.665 3.88 1.986 6.55 1.739 9-2.9s11-23.196 11-23.196zM9 48.358c-3.59 0-6.114 3.554-6 5.8.18 3.553 2.876 6.717 7 7.732 2.792.687 5.012-4.119 6-7.732 1.066-3.9-3.41-5.8-7-5.8z" fill="rgba(68, 43, 90, 1)" stroke="none" fill-rule="evenodd"/>
    <circle cx="30" cy="30" r="3" fill="rgba(136, 136, 136, 1)" stroke="none" fill-rule="evenodd"/>
  </g>
</svg>
</g></svg></g></g>
<!-- /image 90368 -->

<!-- image 25560 -->
<g id="transformed-25560" data-image="25560" transform="translate(-14.092546504814887, 198.8754845034029) rotate(29, 15.092546504814887, 16.1245154965971)"><g><svg version="1.1" width="30.185093009629774px" height="32.2490309931942px" viewBox="0 0 30.185093009629774 32.2490309931942"><g id="original-25560"><svg xmlns="http://www.w3.org/2000/svg" viewBox="0 0 60 64" xmlns:xlink="http://www.w3.org/1999/xlink" version="1.1" preserveAspectRatio="xMidYMid meet">
  <path fill-rule="evenodd" d="M30 63.99L0 46V15L30 0l30 15v31z" fill="rgba(79, 22, 99, 0.4941860465116279)" stroke="none"/>
  <path fill-rule="evenodd" d="M0 30.5V15l30 15v33.99L0 46z" fill="rgba(244, 232, 248, 0.5930232558139535)" stroke="none"/>
  <path fill-rule="evenodd" d="M60 30.5V15L30 30v33.99L60 46z" fill="rgba(197, 150, 213, 0.1)" stroke="none"/>
</svg>
</g></svg></g></g>
<!-- /image 25560 -->

<!-- image 96785 -->
<g id="transformed-96785" data-image="96785" transform="translate(189.75191968623378, 101.35668302290676) rotate(327, 13.248080313766225, 16.64331697709324)"><g><svg version="1.1" width="26.49616062753245px" height="33.28663395418648px" viewBox="0 0 26.49616062753245 33.28663395418648"><g id="original-96785"><svg xmlns="http://www.w3.org/2000/svg" viewBox="0 0 55 69" xmlns:xlink="http://www.w3.org/1999/xlink" version="1.1" preserveAspectRatio="xMidYMid meet">
  <path fill-rule="evenodd" d="M5 69V5h50v64z" fill="rgba(86, 51, 101, 1)" stroke="none"/>
  <path fill-rule="evenodd" d="M0 64V0h36l14 14v50z" fill="rgba(229, 203, 240, 0.8604651162790697)" stroke="none"/>
  <path fill-rule="evenodd" d="M36 0l14 14H36z" fill="rgba(210, 210, 210, 1)" stroke="none"/>
  <path fill-rule="evenodd" d="M10.5 49h29a.5.5 0 1 1 0 1h-29a.5.5 0 1 1 0-1z" fill="rgba(144, 144, 143, 1)" stroke="none"/>
  <path fill-rule="evenodd" d="M10.5 39h29a.5.5 0 1 1 0 1h-29a.5.5 0 1 1 0-1z" fill="rgba(144, 144, 143, 1)" stroke="none"/>
  <path fill-rule="evenodd" d="M10.5 29h29a.5.5 0 1 1 0 1h-29a.5.5 0 1 1 0-1z" fill="rgba(144, 144, 143, 1)" stroke="none"/>
  <path fill-rule="evenodd" d="M10.5 19h29a.5.5 0 1 1 0 1h-29a.5.5 0 1 1 0-1z" fill="rgba(144, 144, 143, 1)" stroke="none"/>
</svg>
</g></svg></g></g>
<!-- /image 96785 -->
</defs><rect x="0" y="0" width="250" height="250" fill="rgba(131, 87, 156, 1)"></rect><use xlink:href="#transformed-85202" transform="translate(-250, -250)"></use><use xlink:href="#transformed-85202" transform="translate(0, -250)"></use><use xlink:href="#transformed-85202" transform="translate(250, -250)"></use><use xlink:href="#transformed-85202" transform="translate(-250, 0)"></use><use xlink:href="#transformed-85202" transform="translate(0, 0)"></use><use xlink:href="#transformed-85202" transform="translate(250, 0)"></use><use xlink:href="#transformed-85202" transform="translate(-250, 250)"></use><use xlink:href="#transformed-85202" transform="translate(0, 250)"></use><use xlink:href="#transformed-85202" transform="translate(250, 250)"></use><use xlink:href="#transformed-29139" transform="translate(-250, -250)"></use><use xlink:href="#transformed-29139" transform="translate(0, -250)"></use><use xlink:href="#transformed-29139" transform="translate(250, -250)"></use><use xlink:href="#transformed-29139" transform="translate(-250, 0)"></use><use xlink:href="#transformed-29139" transform="translate(0, 0)"></use><use xlink:href="#transformed-29139" transform="translate(250, 0)"></use><use xlink:href="#transformed-29139" transform="translate(-250, 250)"></use><use xlink:href="#transformed-29139" transform="translate(0, 250)"></use><use xlink:href="#transformed-29139" transform="translate(250, 250)"></use><use xlink:href="#transformed-40696" transform="translate(-250, -250)"></use><use xlink:href="#transformed-40696" transform="translate(0, -250)"></use><use xlink:href="#transformed-40696" transform="translate(250, -250)"></use><use xlink:href="#transformed-40696" transform="translate(-250, 0)"></use><use xlink:href="#transformed-40696" transform="translate(0, 0)"></use><use xlink:href="#transformed-40696" transform="translate(250, 0)"></use><use xlink:href="#transformed-40696" transform="translate(-250, 250)"></use><use xlink:href="#transformed-40696" transform="translate(0, 250)"></use><use xlink:href="#transformed-40696" transform="translate(250, 250)"></use><use xlink:href="#transformed-90368" transform="translate(-250, -250)"></use><use xlink:href="#transformed-90368" transform="translate(0, -250)"></use><use xlink:href="#transformed-90368" transform="translate(250, -250)"></use><use xlink:href="#transformed-90368" transform="translate(-250, 0)"></use><use xlink:href="#transformed-90368" transform="translate(0, 0)"></use><use xlink:href="#transformed-90368" transform="translate(250, 0)"></use><use xlink:href="#transformed-90368" transform="translate(-250, 250)"></use><use xlink:href="#transformed-90368" transform="translate(0, 250)"></use><use xlink:href="#transformed-90368" transform="translate(250, 250)"></use><use xlink:href="#transformed-25560" transform="translate(-250, -250)"></use><use xlink:href="#transformed-25560" transform="translate(0, -250)"></use><use xlink:href="#transformed-25560" transform="translate(250, -250)"></use><use xlink:href="#transformed-25560" transform="translate(-250, 0)"></use><use xlink:href="#transformed-25560" transform="translate(0, 0)"></use><use xlink:href="#transformed-25560" transform="translate(250, 0)"></use><use xlink:href="#transformed-25560" transform="translate(-250, 250)"></use><use xlink:href="#transformed-25560" transform="translate(0, 250)"></use><use xlink:href="#transformed-25560" transform="translate(250, 250)"></use><use xlink:href="#transformed-96785" transform="translate(-250, -250)"></use><use xlink:href="#transformed-96785" transform="translate(0, -250)"></use><use xlink:href="#transformed-96785" transform="translate(250, -250)"></use><use xlink:href="#transformed-96785" transform="translate(-250, 0)"></use><use xlink:href="#transformed-96785" transform="translate(0, 0)"></use><use xlink:href="#transformed-96785" transform="translate(250, 0)"></use><use xlink:href="#transformed-96785" transform="translate(-250, 250)"></use><use xlink:href="#transformed-96785" transform="translate(0, 250)"></use><use xlink:href="#transformed-96785" transform="translate(250, 250)"></use></svg>